#!OML:ASF G:\JayActor3\Patient Classification 1\Patient 1\Session 6\male.ASF
:FULLY-SPECIFIED
:DEGREES
2719
root -2.66637 16.3532 -8.70104 498.285 -76.3266 -500.078
lowerback -1.56494 0.339102 -1.15104
upperback -1.01538 0.421759 -2.81762
thorax -0.150415 0.189024 -2.23693
lowerneck 6.4106 13.3098 7.28779
upperneck 14.0718 16.8654 6.79642
head 3.55109 8.66158 1.23743
rclavicle -2.22639e-014 -3.02153e-014
rhumerus -39.1347 -4.85608 -85.1734
rradius 35.4954
rwrist 9.06505
rhand -16.0516 -3.20556
rfingers 7.12502
rthumb 10.1503 -32.9407
lclavicle -2.22639e-014 -3.02153e-014
lhumerus -31.1882 9.58372 64.3033
lradius 19.7596
lwrist 13.4676
lhand -5.9748 25.1039
lfingers 7.12502
lthumb 19.8566 54.1096
rfemur 3.78872 -10.0099 28.1861
rtibia 25.0863
rfoot -38.7891 -25.2645
rtoes 11.9367
lfemur -6.97174 10.5924 -4.43622
ltibia 25.9381
lfoot 30.0225 -39.856
ltoes 39.2671
2720
root -2.65447 16.3525 -8.73123 497.701 -76.535 -499.552
lowerback -1.64514 0.363143 -1.11997
upperback -0.939305 0.459415 -2.80201
thorax -0.0262142 0.208634 -2.23699
lowerneck 6.39804 13.2757 7.27146
upperneck 14.0932 16.8178 6.79364
head 3.55933 8.6387 1.24015
rclavicle -8.54774e-015 4.6118e-014
rhumerus -38.9618 -4.70643 -85.338
rradius 35.6532
rwrist 8.89017
rhand -15.9812 -3.27337
rfingers 7.12502
rthumb 10.2183 -33.0052
lclavicle -8.54774e-015 4.6118e-014
lhumerus -31.527 9.15769 64.4794
lradius 20.1023
lwrist 13.9022
lhand -6.04374 24.9694
lfingers 7.12502
lthumb 19.7903 53.9819
rfemur 3.88839 -10.1292 28.26
rtibia 25.0122
rfoot -38.9047 -25.2741
rtoes 12.0591
lfemur -6.98839 10.3319 -4.40263
ltibia 25.9143
lfoot 29.9081 -39.8419
ltoes 39.34
2721
root -2.64181 16.3512 -8.76021 497.11 -76.7338 -499.031
lowerback -1.71089 0.387521 -1.0662
upperback -0.857412 0.496883 -2.79124
thorax 0.0960933 0.228152 -2.25475
lowerneck 6.39387 13.2426 7.25925
upperneck 14.1173 16.7719 6.78821
head 3.56777 8.61652 1.24108
rclavicle -8.54774e-015 9.54166e-015
rhumerus -38.7758 -4.54248 -85.5072
rradius 35.7932
rwrist 8.68468
rhand -15.908 -3.33815
rfingers 7.12502
rthumb 10.2889 -33.0665
lclavicle -8.54774e-015 9.54166e-015
lhumerus -31.8647 8.76069 64.658
lradius 20.4337
lwrist 14.3558
lhand -6.14168 24.7611
lfingers 7.12502
lthumb 19.6962 53.7833
rfemur 4.00112 -10.3134 28.3037
rtibia 24.9387
rfoot -38.9353 -25.2544
rtoes 12.117
lfemur -6.9948 10.0668 -4.3708
ltibia 25.9008
lfoot 29.7668 -39.8439
ltoes 39.403
2722
root -2.62766 16.3496 -8.78826 496.492 -76.9099 -498.489
lowerback -1.74683 0.414008 -0.979579
upperback -0.779758 0.535648 -2.78164
thorax 0.197769 0.248347 -2.29228
lowerneck 6.40998 13.2097 7.25407
upperneck 14.1449 16.7273 6.78116
head 3.57473 8.59471 1.23923
rclavicle 7.95139e-016 -2.06736e-014
rhumerus -38.5926 -4.3714 -85.6787
rradius 35.9257
rwrist 8.45949
rhand -15.8436 -3.391
rfingers 7.12502
rthumb 10.3511 -33.1162
lclavicle 7.95139e-016 -2.06736e-014
lhumerus -32.2138 8.3885 64.8341
lradius 20.7598
lwrist 14.8169
lhand -6.24434 24.5225
lfingers 7.12502
lthumb 19.5975 53.5547
rfemur 4.11952 -10.5313 28.3443
rtibia 24.8642
rfoot -38.9057 -25.2189
rtoes 12.1293
lfemur -6.99688 9.79222 -4.32488
ltibia 25.8977
lfoot 29.5891 -39.8514
ltoes 39.4571
2723
root -2.61232 16.3477 -8.81564 495.874 -77.0725 -497.959
lowerback -1.76368 0.440719 -0.876121
upperback -0.697881 0.57397 -2.77305
thorax 0.293336 0.268461 -2.34037
lowerneck 6.43778 13.1793 7.2521
upperneck 14.1769 16.6864 6.77017
head 3.58194 8.57446 1.2352
rclavicle -2.64384e-014 5.08889e-014
rhumerus -38.4013 -4.18952 -85.8522
rradius 36.0513
rwrist 8.21257
rhand -15.8186 -3.40556
rfingers 7.12502
rthumb 10.3751 -33.1296
lclavicle -2.64384e-014 5.08889e-014
lhumerus -32.5618 8.06077 65.0055
lradius 21.0723
lwrist 15.2598
lhand -6.32934 24.3081
lfingers 7.12502
lthumb 19.5157 53.3487
rfemur 4.24511 -10.7739 28.3739
rtibia 24.7938
rfoot -38.8328 -25.1708
rtoes 12.1102
lfemur -6.98717 9.49791 -4.27691
ltibia 25.8983
lfoot 29.3672 -39.864
ltoes 39.4997
2724
root -2.59543 16.3457 -8.84281 495.266 -77.2178 -497.44
lowerback -1.76441 0.467347 -0.759971
upperback -0.617951 0.611392 -2.76311
thorax 0.378085 0.288254 -2.3943
lowerneck 6.47803 13.1505 7.25366
upperneck 14.2181 16.6477 6.75607
head 3.59092 8.55512 1.2294
rclavicle -1.17283e-014 4.29375e-014
rhumerus -38.2041 -3.99595 -86.0267
rradius 36.1711
rwrist 7.95575
rhand -15.8219 -3.39681
rfingers 7.12502
rthumb 10.372 -33.121
lclavicle -1.17283e-014 4.29375e-014
lhumerus -32.9134 7.78245 65.1667
lradius 21.3725
lwrist 15.6696
lhand -6.37629 24.1659
lfingers 7.12502
lthumb 19.4706 53.211
rfemur 4.35981 -11.0219 28.4076
rtibia 24.7321
rfoot -38.7312 -25.128
rtoes 12.0679
lfemur -6.97579 9.18828 -4.22259
ltibia 25.8967
lfoot 29.1111 -39.8775
ltoes 39.5367
2725
root -2.57725 16.3439 -8.87006 494.728 -77.3619 -496.994
lowerback -1.74589 0.493174 -0.65463
upperback -0.544265 0.646984 -2.75655
thorax 0.445621 0.307113 -2.44584
lowerneck 6.52433 13.1239 7.25544
upperneck 14.2813 16.6098 6.74417
head 3.60656 8.5363 1.22517
rclavicle 1.8487e-014 -2.70347e-014
rhumerus -38.0111 -3.79737 -86.1973
rradius 36.2899
rwrist 7.7051
rhand -15.8563 -3.36131
rfingers 7.12502
rthumb 10.3388 -33.0872
lclavicle 1.8487e-014 -2.70347e-014
lhumerus -33.2722 7.55358 65.3163
lradius 21.6534
lwrist 16.0464
lhand -6.39774 24.068
lfingers 7.12502
lthumb 19.45 53.1152
rfemur 4.46171 -11.2738 28.4255
rtibia 24.6833
rfoot -38.6164 -25.0864
rtoes 12.019
lfemur -6.96004 8.85793 -4.18476
ltibia 25.8881
lfoot 28.8241 -39.8862
ltoes 39.5722
2726
root -2.55799 16.3421 -8.89758 494.23 -77.4947 -496.587
lowerback -1.71757 0.517556 -0.554385
upperback -0.473271 0.680367 -2.74602
thorax 0.504829 0.32494 -2.49055
lowerneck 6.57283 13.0994 7.25937
upperneck 14.3672 16.5728 6.72822
head 3.63068 8.51816 1.22073
rclavicle -4.17448e-015 2.54444e-014
rhumerus -37.8161 -3.59105 -86.3593
rradius 36.406
rwrist 7.46839
rhand -15.8902 -3.32849
rfingers 7.12502
rthumb 10.3061 -33.056
lclavicle -4.17448e-015 2.54444e-014
lhumerus -33.6359 7.37866 65.4578
lradius 21.9174
lwrist 16.3905
lhand -6.39333 24.0419
lfingers 7.12502
lthumb 19.4542 53.0887
rfemur 4.54865 -11.5154 28.4482
rtibia 24.647
rfoot -38.5069 -25.0535
rtoes 11.9797
lfemur -6.94176 8.51301 -4.14744
ltibia 25.8742
lfoot 28.5096 -39.8991
ltoes 39.6029
2727
root -2.53819 16.3402 -8.92544 493.727 -77.6104 -496.18
lowerback -1.68594 0.539735 -0.447639
upperback -0.399021 0.710784 -2.72888
thorax 0.565498 0.341473 -2.5322
lowerneck 6.61597 13.0778 7.26497
upperneck 14.4792 16.537 6.70836
head 3.66577 8.50102 1.21698
rclavicle -2.94201e-014 6.83819e-014
rhumerus -37.6156 -3.37763 -86.5122
rradius 36.5206
rwrist 7.24653
rhand -15.9102 -3.31331
rfingers 7.12502
rthumb 10.2868 -33.0418
lclavicle -2.94201e-014 6.83819e-014
lhumerus -33.996 7.26063 65.592
lradius 22.1548
lwrist 16.7114
lhand -6.3891 24.0217
lfingers 7.12502
lthumb 19.4583 53.0681
rfemur 4.62869 -11.7542 28.4845
rtibia 24.6227
rfoot -38.405 -25.0274
rtoes 11.9501
lfemur -6.91446 8.15888 -4.09679
ltibia 25.8557
lfoot 28.1897 -39.9115
ltoes 39.6451
2728
root -2.51799 16.338 -8.95362 493.21 -77.6998 -495.764
lowerback -1.65447 0.560538 -0.329256
upperback -0.319172 0.739465 -2.69987
thorax 0.631997 0.35743 -2.56816
lowerneck 6.65442 13.0598 7.26963
upperneck 14.6107 16.5047 6.67852
head 3.70976 8.48568 1.21201
rclavicle -1.78906e-015 1.74931e-014
rhumerus -37.4081 -3.15433 -86.6509
rradius 36.6344
rwrist 7.04439
rhand -15.9132 -3.31188
rfingers 7.12502
rthumb 10.2839 -33.0405
lclavicle -1.78906e-015 1.74931e-014
lhumerus -34.3487 7.20114 65.7235
lradius 22.3653
lwrist 17.0183
lhand -6.38436 24.0228
lfingers 7.12502
lthumb 19.4628 53.0687
rfemur 4.70519 -11.987 28.5424
rtibia 24.606
rfoot -38.3061 -25.0102
rtoes 11.9243
lfemur -6.87789 7.79234 -4.02473
ltibia 25.8382
lfoot 27.8388 -39.9306
ltoes 39.6911
2729
root -2.49787 16.3354 -8.982 492.723 -77.7716 -495.39
lowerback -1.62919 0.581026 -0.208886
upperback -0.225448 0.768151 -2.66399
thorax 0.716203 0.373725 -2.59804
lowerneck 6.69168 13.0455 7.27876
upperneck 14.7484 16.4789 6.62946
head 3.75872 8.47328 1.20123
rclavicle -2.18663e-015 1.90833e-014
rhumerus -37.185 -2.92075 -86.7786
rradius 36.747
rwrist 6.84228
rhand -15.9027 -3.32383
rfingers 7.12502
rthumb 10.294 -33.0519
lclavicle -2.18663e-015 1.90833e-014
lhumerus -34.6799 7.21295 65.8469
lradius 22.5386
lwrist 17.2928
lhand -6.37732 24.0508
lfingers 7.12502
lthumb 19.4696 53.0961
rfemur 4.78842 -12.2073 28.6059
rtibia 24.5969
rfoot -38.214 -25.0009
rtoes 11.9005
lfemur -6.82045 7.40592 -3.94761
ltibia 25.821
lfoot 27.4275 -39.9627
ltoes 39.7278
2730
root -2.47736 16.3327 -9.01056 492.282 -77.8147 -495.063
lowerback -1.61319 0.60406 -0.0795922
upperback -0.124618 0.800331 -2.61891
thorax 0.813122 0.392101 -2.62325
lowerneck 6.7385 13.0336 7.29316
upperneck 14.8794 16.4601 6.55652
head 3.80653 8.46362 1.18144
rclavicle -1.15295e-014 3.49861e-014
rhumerus -36.9531 -2.67793 -86.8955
rradius 36.8619
rwrist 6.63858
rhand -15.8897 -3.34238
rfingers 7.12502
rthumb 10.3066 -33.0698
lclavicle -1.15295e-014 3.49861e-014
lhumerus -34.9914 7.29213 65.9623
lradius 22.674
lwrist 17.5351
lhand -6.36089 24.1062
lfingers 7.12502
lthumb 19.4854 53.1499
rfemur 4.86059 -12.3947 28.6918
rtibia 24.5982
rfoot -38.1351 -25.0011
rtoes 11.8925
lfemur -6.75232 6.99845 -3.8582
ltibia 25.7996
lfoot 26.9347 -39.9981
ltoes 39.7473
2731
root -2.45683 16.33 -9.03928 491.939 -77.8416 -494.835
lowerback -1.60523 0.631936 0.0479606
upperback -0.018824 0.83892 -2.57352
thorax 0.920005 0.413882 -2.64685
lowerneck 6.79687 13.0213 7.31669
upperneck 14.9999 16.4452 6.46088
head 3.85177 8.45525 1.152
rclavicle -2.28602e-014 3.33958e-014
rhumerus -36.7202 -2.43596 -87.0052
rradius 36.9814
rwrist 6.41996
rhand -15.9029 -3.33766
rfingers 7.12502
rthumb 10.2938 -33.0658
lclavicle -2.28602e-014 3.33958e-014
lhumerus -35.2836 7.42277 66.0681
lradius 22.7681
lwrist 17.7463
lhand -6.33832 24.1557
lfingers 7.12502
lthumb 19.5071 53.1971
rfemur 4.92145 -12.5436 28.7823
rtibia 24.618
rfoot -38.0837 -24.9938
rtoes 11.9241
lfemur -6.66439 6.55494 -3.77781
ltibia 25.763
lfoot 26.3256 -40.0331
ltoes 39.7291
2732
root -2.43577 16.3277 -9.06831 491.726 -77.852 -494.732
lowerback -1.61149 0.665369 0.166212
upperback 0.0938361 0.885044 -2.52688
thorax 1.04222 0.439638 -2.66352
lowerneck 6.85469 13.0091 7.3439
upperneck 15.1081 16.4342 6.34365
head 3.89527 8.44817 1.1148
rclavicle 3.78685e-014 3.65764e-014
rhumerus -36.4761 -2.19944 -87.1041
rradius 37.1027
rwrist 6.20815
rhand -15.9467 -3.30816
rfingers 7.12502
rthumb 10.2516 -33.0383
lclavicle 3.78685e-014 3.65764e-014
lhumerus -35.551 7.60883 66.167
lradius 22.8253
lwrist 17.9238
lhand -6.311 24.2048
lfingers 7.12502
lthumb 19.5334 53.2436
rfemur 4.95672 -12.6189 28.8895
rtibia 24.6586
rfoot -38.079 -24.9989
rtoes 12.0044
lfemur -6.56371 6.07308 -3.70986
ltibia 25.7064
lfoot 25.5842 -40.0623
ltoes 39.6592
2733
root -2.41459 16.3258 -9.09766 491.688 -77.8697 -494.807
lowerback -1.61416 0.704696 0.256121
upperback 0.203504 0.938883 -2.49045
thorax 1.15957 0.46903 -2.67451
lowerneck 6.91503 12.9933 7.37657
upperneck 15.2155 16.4197 6.21741
head 3.93957 8.43924 1.07372
rclavicle 1.40143e-014 1.43125e-014
rhumerus -36.2462 -1.98398 -87.1919
rradius 37.2298
rwrist 6.00745
rhand -15.9991 -3.27363
rfingers 7.12502
rthumb 10.201 -33.0063
lclavicle 1.40143e-014 1.43125e-014
lhumerus -35.8111 7.8258 66.2577
lradius 22.8483
lwrist 18.0682
lhand -6.28321 24.2246
lfingers 7.12502
lthumb 19.5601 53.2607
rfemur 4.97592 -12.6577 28.9722
rtibia 24.7219
rfoot -38.0905 -25.0026
rtoes 12.1071
lfemur -6.44139 5.55275 -3.68234
ltibia 25.6245
lfoot 24.7386 -40.0711
ltoes 39.5502
